<?xml version="1.0" standalone="no"?>
<!DOCTYPE svg PUBLIC "-//W3C//DTD SVG 20010904//EN"
 "http://www.w3.org/TR/2001/REC-SVG-20010904/DTD/svg10.dtd">
<svg version="1.0" xmlns="http://www.w3.org/2000/svg"
 width="24" height="24" viewBox="0 0 100.000000 100.000000"
 preserveAspectRatio="xMidYMid meet">

<g transform="translate(0.000000,100.000000) scale(0.100000,-0.100000)"
fill="#F05454" stroke="none">
<path d="M239 864 c-98 -30 -168 -140 -156 -245 12 -100 48 -151 234 -336 95
-95 177 -173 183 -173 5 0 87 78 183 172 186 186 222 237 234 337 13 109 -58
216 -163 247 -70 20 -129 11 -199 -32 l-56 -33 -48 30 c-78 49 -134 57 -212
33z"/>
</g>
</svg>
